# xmcd
#
# Track frame offsets:
#	150
#	12350
#	25688
#	42723
#	52900
#	67202
#	82095
#	96745
#	111018
#	123480
#	138371
#	151713
#	165082
#	178748
#	194541
#	207565
#	222630
#	236981
#	254584
#	270515
#
# Disc length: 3812 seconds
#
# Revision: 1
# Processed by: cddbd v1.5.2PL0 Copyright (c) Steve Scherf et al.
# Submitted via: audiograbber 1.83.01
#
DISCID=300ee214
DTITLE=Various Artist - Blitzing The Ballroom
DYEAR=2008
DGENRE=Glam
TTITLE0=Shambles - Hello Baby
TTITLE1=Tiger - I'm an Animal
TTITLE2=Angel - Little Boy Blue
TTITLE3=True Adventure - Outlaw Love
TTITLE4=Change - Wildcat
TTITLE5=Stumpy - Keep It Coming
TTITLE6=Union Express - Do You Love Me
TTITLE7=Abacus - Indian Dancer
TTITLE8=Paul Ryder and Time Machine - Are You Ready
TTITLE9=Panther - One Man Band
TTITLE10=Winston - Mona
TTITLE11=Frenzy - Poser
TTITLE12=Bullfrog - Glancy
TTITLE13=Pete Dunton - Taking Time
TTITLE14=Tim Dandy - Run, Run, Run, Run, Run
TTITLE15=Giggles - High School Girls
TTITLE16=Stephen - Right On Running Man
TTITLE17=Screemer - Billy
TTITLE18=Sakkarin - Hang On Sloopy
TTITLE19=Fynnius Fogg - Roller Skating Baby
EXTD=
EXTT0=
EXTT1=
EXTT2=
EXTT3=
EXTT4=
EXTT5=
EXTT6=
EXTT7=
EXTT8=
EXTT9=
EXTT10=
EXTT11=
EXTT12=
EXTT13=
EXTT14=
EXTT15=
EXTT16=
EXTT17=
EXTT18=
EXTT19=
PLAYORDER=
